<svg xmlns="http://www.w3.org/2000/svg" width="960" height="320" viewBox="0 0 960 320"><defs><filter id="a" width="115%" height="120%" x="-5%" y="-5%"><feDropShadow dx="0" dy="4" flood-color="#888" flood-opacity=".25" stdDeviation="10"/></filter></defs><rect width="960" height="320" fill="#f5f5f5" rx="16"/><g fill="#0d0d0d"><path d="M44 79.175h7.055l2.926 29.97 3.527-19.387h6.7l4.1 19.386 2.298-29.969h7.11L73.011 120h-7.52l-4.648-21.438L56.496 120h-7.465ZM83.753 89.375h15.86v24.473h9.953V120H81.62v-6.152h9.98v-18.32h-7.847Zm7.848-14.903h8.012v9.352H91.6ZM122.012 107.23V83.605h-8.121v-6.152h16.133v29.777q0 3.61 1.121 5.114t3.8 1.504h6.4V120h-8.641q-5.715 0-8.204-2.953-2.488-2.953-2.488-9.817M155.722 107.23V83.605h-8.121v-6.152h16.133v29.777q0 3.61 1.121 5.114t3.8 1.504h6.4V120h-8.641q-5.715 0-8.204-2.953-2.488-2.953-2.488-9.817M184.903 89.375h15.86v24.473h9.953V120H182.77v-6.152h9.98v-18.32h-7.847Zm7.848-14.903h8.012v9.352h-8.012ZM231.71 105.617q-4.484 0-6.261 1.149-1.777 1.148-1.777 3.937 0 2.078 1.23 3.309 1.23 1.23 3.336 1.23 3.172 0 4.922-2.392t1.75-6.686v-.547Zm11.157-3.09V120h-7.957v-3.418q-1.45 2.023-3.719 3.117t-5.004 1.094q-5.222 0-8.135-2.762t-2.912-7.71q0-5.36 3.473-7.917t10.746-2.557h5.551v-1.34q0-1.94-1.408-2.939-1.408-.998-4.143-.998-2.87 0-5.564.725-2.694.724-5.62 2.31V90.77q2.653-1.093 5.387-1.613 2.735-.52 5.797-.52 7.465 0 10.487 3.036 3.021 3.035 3.021 10.855M265.157 92.437q.903-1.941 2.297-2.87 1.395-.93 3.418-.93 3.965 0 5.483 2.734t1.517 11.375V120h-6.562v-19.66q0-3.418-.52-4.567-.52-1.148-1.887-1.148T266.99 95.8q-.546 1.175-.546 4.539V120h-6.481v-19.66q0-3.364-.547-4.54-.547-1.175-1.914-1.175t-1.887 1.148-.52 4.567V120h-6.562V89.375h5.824v3.172q.684-1.805 2.188-2.858t3.363-1.053 3.391 1.108 1.86 2.693"/></g><g fill="#0d0d0d"><path d="M180.805 162.09q-6.097-2.325-8.257-4.881t-2.16-6.877q0-5.551 3.554-8.723 3.555-3.172 9.762-3.172 2.816 0 5.633.643 2.816.642 5.578 1.9v7.875q-2.598-1.832-5.277-2.789t-5.305-.957q-2.926 0-4.485 1.176-1.558 1.176-1.558 3.363 0 1.695 1.135 2.803 1.134 1.107 4.744 2.447l3.472 1.313q4.922 1.804 7.247 4.785 2.324 2.98 2.324 7.52 0 6.18-3.65 9.228t-11.034 3.049q-3.035 0-6.084-.725-3.049-.724-5.893-2.146v-8.34q3.227 2.297 6.249 3.418t5.974 1.121q2.98 0 4.621-1.353 1.641-1.354 1.641-3.788 0-1.832-1.094-3.213-1.094-1.38-3.172-2.173ZM204.945 169.308v-19.933h8.012v18.703q0 3.309.93 4.73t3.09 1.422 3.376-1.914 1.217-5.36v-17.581h8.012V180h-8.012v-4.54q-.847 2.544-2.885 3.938t-4.908 1.395q-4.375 0-6.603-2.898-2.229-2.899-2.229-8.587M263.575 160.12V180h-7.957v-18.649q0-3.336-.943-4.771t-3.076-1.436q-2.16 0-3.405 1.942t-1.244 5.386V180h-7.957v-30.625h7.957v4.594q.848-2.543 2.899-3.938 2.05-1.395 4.949-1.395 4.348 0 6.563 2.885t2.214 8.6"/></g><g fill="#555"><path d="M45.352 225.468h2.636l2.52 7.403 2.54-7.403h2.646V240h-1.826v-12.842l-2.598 7.656h-1.494l-2.608-7.656V240h-1.816ZM59.003 225.42h8.096v1.66h-3.057v11.26H67.1V240h-8.096v-1.66h3.057v-11.26h-3.057ZM78.963 225.917v2.002q-.898-.576-1.802-.869-.903-.293-1.821-.293-1.397 0-2.207.65t-.81 1.753q0 .967.532 1.474.532.508 1.987.85l1.035.234q2.051.479 2.989 1.504.937 1.026.937 2.793 0 2.08-1.289 3.174-1.29 1.094-3.75 1.094-1.026 0-2.06-.22-1.036-.22-2.081-.659v-2.1q1.123.714 2.124 1.046t2.017.332q1.494 0 2.324-.67.83-.668.83-1.87 0-1.093-.571-1.67-.571-.576-1.987-.888l-1.055-.244q-2.032-.46-2.95-1.387-.918-.928-.918-2.49 0-1.954 1.314-3.13 1.314-1.177 3.491-1.177.84 0 1.768.19t1.953.571M81.472 225.468h2.636l2.52 7.403 2.54-7.403h2.646V240h-1.826v-12.842l-2.598 7.656h-1.494l-2.608-7.656V240h-1.816ZM103.297 234.678q0-1.26-.625-2.017t-1.67-.757-1.675.757-.63 2.017q0 1.27.63 2.026.63.757 1.675.757t1.67-.757.625-2.026m1.367 4.004h-1.406v-1.084q-.361.615-1.001.947t-1.44.332q-1.573 0-2.603-1.182t-1.03-3.017 1.03-3.018 2.603-1.182q.78 0 1.435.342.654.342 1.006.937v-.615q0-1.523-.86-2.451-.859-.928-2.275-.928-2.402 0-3.823 1.87t-1.421 5.064q0 3.213 1.611 5.117 1.612 1.905 4.414 1.915.528.078 1.485.078t1.709-.04v1.407q-.635.049-1.636.054t-1.558-.083q-3.388-.03-5.434-2.305t-2.046-6.143q0-3.809 1.836-6.065t4.922-2.256q2.04 0 3.262 1.3 1.22 1.298 1.22 3.486ZM115.689 239.482q-.752.4-1.543.601t-1.68.2q-2.803 0-4.35-1.982-1.549-1.983-1.549-5.577 0-3.574 1.558-5.571t4.341-1.997q.889 0 1.68.2t1.543.6v2.022q-.723-.596-1.553-.908t-1.67-.313q-1.924 0-2.88 1.485-.958 1.484-.958 4.482 0 2.989.957 4.473.957 1.485 2.881 1.485.86 0 1.685-.313.825-.312 1.538-.908ZM117.602 225.468h2.636l2.52 7.403 2.54-7.403h2.646V240h-1.826v-12.842l-2.598 7.656h-1.494l-2.608-7.656V240h-1.816ZM130.726 234.404v-8.985h1.982v9.884q0 1.064.059 1.518t.205.698q.312.577.903.87t1.43.293q.85 0 1.436-.293t.909-.87q.146-.244.205-.693.058-.45.058-1.504v-9.903h1.973v8.985q0 2.236-.278 3.179-.279.942-.962 1.558-.645.576-1.475.859t-1.865.283q-1.026 0-1.856-.283t-1.484-.86q-.674-.605-.957-1.567t-.283-3.169"/></g><rect width="608" height="216" x="320" y="52" fill="#0d0d0d" filter="url(#a)" rx="14"/><g fill="#e0e0e0"><path d="M361.343 86.324v1.345h-1.837q-.87 0-1.209.356-.338.356-.338 1.261v.87h3.384v1.257h-3.384V100h-1.617v-8.587h-2.628v-1.257h2.628v-.685q0-1.617.742-2.382.743-.765 2.316-.765ZM368.781 91.158q.3-.633.76-.936.462-.303 1.112-.303 1.187 0 1.675.918.488.919.488 3.459V100h-1.477v-5.634q0-2.083-.233-2.588t-.848-.505q-.703 0-.962.54-.26.54-.26 2.553V100h-1.476v-5.634q0-2.11-.25-2.601-.251-.492-.902-.492-.641 0-.892.54-.25.54-.25 2.553V100h-1.468v-9.844h1.468V91q.29-.527.725-.804t.989-.277q.668 0 1.111.308.444.307.69.931M379.066 87.361v2.795h3.674v1.257h-3.674v5.344q0 1.09.414 1.52.413.431 1.44.431h1.82V100h-1.977q-1.82 0-2.567-.73-.747-.729-.747-2.513v-5.344h-2.628v-1.257h2.628v-2.795ZM387.929 96.45h3.094V100h-3.094ZM398.857 88.337v4.93h2.056q1.23 0 1.92-.65t.69-1.82-.685-1.814-1.925-.646Zm-1.776-1.459h3.832q2.198 0 3.331.998 1.134.997 1.134 2.922 0 1.942-1.13 2.935t-3.335.994h-2.056V100h-1.776ZM416.331 92.187q-.518-.405-1.054-.59-.537-.184-1.178-.184-1.512 0-2.312.95-.8.949-.8 2.742V100h-1.625v-9.844h1.626v1.925q.404-1.046 1.243-1.604t1.99-.558q.599 0 1.117.15.519.149.993.465ZM419.797 90.191h4.14v8.552h3.208V100h-8.033v-1.257h3.208v-7.295h-2.523Zm2.523-3.823h1.617v2.04h-1.617ZM437.097 93.9v6.1h-1.626v-6.1q0-1.327-.466-1.95-.465-.625-1.459-.625-1.133 0-1.744.804-.611.805-.611 2.308V100h-1.617v-9.844h1.617v1.477q.43-.844 1.169-1.279.738-.435 1.749-.435 1.503 0 2.246.989.742.989.742 2.992M444.096 87.361v2.795h3.674v1.257h-3.674v5.344q0 1.09.414 1.52.413.431 1.44.431h1.82V100h-1.977q-1.82 0-2.567-.73-.747-.729-.747-2.513v-5.344h-2.628v-1.257h2.628v-2.795ZM455.85 96.44q0 1.09.4 1.644t1.181.554h1.89V100h-2.048q-1.45 0-2.245-.927t-.796-2.633v-8.903h-2.593v-1.265h4.21ZM469.607 93.9v6.1h-1.626v-6.1q0-1.327-.466-1.95-.465-.625-1.459-.625-1.133 0-1.744.804-.611.805-.611 2.308V100h-1.617v-9.844h1.617v1.477q.43-.844 1.169-1.279.738-.435 1.749-.435 1.503 0 2.246.989.742.989.742 2.992M478.725 85.463q-1.17 2.004-1.745 3.995-.576 1.99-.576 4.012 0 2.012.576 4.008t1.745 4.016h-1.407q-1.327-2.092-1.977-4.074t-.65-3.95q0-1.96.65-3.946t1.977-4.061ZM490.346 86.403v5.38h-1.97v-5.38Zm-4.685 0v5.38h-1.969v-5.38ZM494.084 86.878h1.784v5.027h4.86v-5.027h1.785V100h-1.784v-6.6h-4.86v6.6h-1.785ZM513.564 94.27v.79h-7.005v.053q-.07 2.013.769 2.892.84.879 2.369.879.773 0 1.617-.246.843-.246 1.801-.747v1.608q-.922.378-1.78.567-.856.189-1.656.189-2.294 0-3.586-1.376t-1.292-3.792q0-2.356 1.266-3.762 1.265-1.406 3.375-1.406 1.88 0 2.966 1.274 1.085 1.275 1.156 3.077m-1.617-.475q-.106-1.02-.743-1.762-.637-.743-1.833-.743-1.169 0-1.924.774-.756.773-.827 1.74ZM522.091 96.836q-.404 1.028-1.028 2.707-.87 2.32-1.17 2.83-.404.686-1.01 1.028-.606.343-1.415.343h-1.3v-1.353h.957q.712 0 1.116-.413.405-.414 1.029-2.136l-3.806-9.686h1.714l2.918 7.7 2.874-7.7h1.714ZM530.189 86.878h1.784v5.757l-.185 2.698h-1.415l-.184-2.698Zm-.264 10.89h2.312V100h-2.312ZM547.06 86.878h1.731l1.257 10.652 1.494-7.048h1.855l1.512 7.066 1.256-10.67h1.732L555.937 100h-1.679l-1.784-7.796-1.775 7.796h-1.68ZM567.744 94.27v.79h-7.005v.053q-.07 2.013.769 2.892.84.879 2.369.879.773 0 1.617-.246.843-.246 1.801-.747v1.608q-.922.378-1.78.567-.856.189-1.656.189-2.294 0-3.586-1.376t-1.292-3.792q0-2.356 1.266-3.762 1.265-1.406 3.375-1.406 1.88 0 2.966 1.274 1.085 1.275 1.156 3.077m-1.617-.475q-.106-1.02-.743-1.762-.637-.743-1.833-.743-1.169 0-1.924.774-.756.773-.827 1.74ZM575.06 96.44q0 1.09.4 1.644t1.181.554h1.89V100h-2.048q-1.45 0-2.245-.927t-.796-2.633v-8.903h-2.593v-1.265h4.21ZM588.905 99.499q-.65.378-1.34.567t-1.41.189q-2.286 0-3.574-1.371t-1.287-3.797 1.287-3.797 3.573-1.371q.712 0 1.389.185.677.184 1.362.57v1.697q-.641-.571-1.287-.826t-1.464-.255q-1.52 0-2.338.984-.817.985-.817 2.813 0 1.82.822 2.808.821.989 2.333.989.844 0 1.512-.26.668-.259 1.24-.804ZM595.824 91.29q-1.23 0-1.863.958t-.633 2.839q0 1.872.633 2.834.633.963 1.863.963 1.24 0 1.872-.963.633-.962.633-2.834 0-1.88-.633-2.839-.633-.958-1.872-.958m0-1.371q2.048 0 3.133 1.327 1.086 1.327 1.086 3.84 0 2.523-1.081 3.846t-3.138 1.323q-2.048 0-3.129-1.323t-1.08-3.845q0-2.514 1.08-3.84 1.081-1.328 3.129-1.328M607.191 91.158q.3-.633.76-.936.462-.303 1.112-.303 1.187 0 1.675.918.488.919.488 3.459V100h-1.477v-5.634q0-2.083-.233-2.588t-.848-.505q-.703 0-.962.54-.26.54-.26 2.553V100h-1.476v-5.634q0-2.11-.25-2.601-.251-.492-.902-.492-.641 0-.892.54-.25.54-.25 2.553V100h-1.468v-9.844h1.468V91q.29-.527.725-.804t.989-.277q.668 0 1.111.308.444.307.69.931M621.934 94.27v.79h-7.005v.053q-.07 2.013.769 2.892.84.879 2.369.879.773 0 1.617-.246.843-.246 1.801-.747v1.608q-.922.378-1.78.567-.856.189-1.656.189-2.294 0-3.586-1.376t-1.292-3.792q0-2.356 1.266-3.762 1.265-1.406 3.375-1.406 1.88 0 2.966 1.274 1.085 1.275 1.156 3.077m-1.617-.475q-.106-1.02-.743-1.762-.637-.743-1.833-.743-1.169 0-1.924.774-.756.773-.827 1.74ZM639.156 87.361v2.795h3.674v1.257h-3.674v5.344q0 1.09.414 1.52.413.431 1.44.431h1.82V100h-1.977q-1.82 0-2.567-.73-.747-.729-.747-2.513v-5.344h-2.628v-1.257h2.628v-2.795ZM650.014 91.29q-1.23 0-1.863.958t-.633 2.839q0 1.872.633 2.834.633.963 1.863.963 1.24 0 1.872-.963.633-.962.633-2.834 0-1.88-.633-2.839-.633-.958-1.872-.958m0-1.371q2.048 0 3.133 1.327 1.086 1.327 1.086 3.84 0 2.523-1.081 3.846t-3.138 1.323q-2.048 0-3.129-1.323t-1.08-3.845q0-2.514 1.08-3.84 1.081-1.328 3.129-1.328M672.211 91.158q.3-.633.76-.936.462-.303 1.112-.303 1.187 0 1.675.918.488.919.488 3.459V100h-1.477v-5.634q0-2.083-.233-2.588t-.848-.505q-.703 0-.962.54-.26.54-.26 2.553V100h-1.476v-5.634q0-2.11-.25-2.601-.251-.492-.902-.492-.641 0-.892.54-.25.54-.25 2.553V100h-1.468v-9.844h1.468V91q.29-.527.725-.804t.989-.277q.668 0 1.111.308.444.307.69.931M684.651 96.836q-.404 1.028-1.028 2.707-.87 2.32-1.17 2.83-.404.686-1.01 1.028-.606.343-1.415.343h-1.3v-1.353h.957q.712 0 1.116-.413.405-.414 1.029-2.136l-3.806-9.686h1.714l2.918 7.7 2.874-7.7h1.714ZM708.483 98.919q-.712.66-1.604.998t-1.93.338q-2.495 0-3.884-1.789t-1.389-5.014q0-3.217 1.407-5.014 1.406-1.797 3.91-1.797.827 0 1.583.233t1.459.707v1.82q-.712-.677-1.46-.998-.746-.32-1.581-.32-1.732 0-2.597 1.34-.866 1.34-.866 4.03 0 2.733.84 4.047.839 1.313 2.579 1.313.589 0 1.033-.136t.804-.426v-3.524h-1.907v-1.46h3.603ZM712.397 90.191h4.14v8.552h3.208V100h-8.033v-1.257h3.208v-7.295h-2.523Zm2.523-3.823h1.617v2.04h-1.617ZM725.856 87.361v2.795h3.674v1.257h-3.674v5.344q0 1.09.414 1.52.413.431 1.44.431h1.82V100h-1.977q-1.82 0-2.567-.73-.747-.729-.747-2.513v-5.344h-2.628v-1.257h2.628v-2.795ZM740.527 93.9v6.1h-1.626v-6.1q0-1.327-.466-1.95-.465-.625-1.459-.625-1.133 0-1.744.804-.611.805-.611 2.308V100h-1.617V86.324h1.617v5.309q.43-.844 1.169-1.279.738-.435 1.749-.435 1.503 0 2.246.989.742.989.742 2.992M743.844 96.273v-6.1h1.617v6.1q0 1.328.47 1.952t1.455.624q1.142 0 1.749-.805.606-.804.606-2.307v-5.563h1.626V100h-1.626v-1.477q-.43.853-1.173 1.292t-1.736.44q-1.512 0-2.25-.989t-.738-2.993M761.038 95.087q0-1.88-.597-2.839-.598-.958-1.767-.958-1.178 0-1.784.962-.607.963-.607 2.835 0 1.863.607 2.83.606.967 1.784.967 1.169 0 1.767-.958t.597-2.84m-4.755-3.674q.387-.72 1.068-1.107t1.578-.387q1.775 0 2.795 1.367t1.02 3.766q0 2.434-1.025 3.819-1.023 1.384-2.808 1.384-.879 0-1.55-.382-.673-.383-1.078-1.112V100h-1.617V86.324h1.617ZM778.147 88.337v4.93h2.056q1.23 0 1.92-.65t.69-1.82-.685-1.814-1.925-.646Zm-1.776-1.459h3.832q2.198 0 3.331.998 1.134.997 1.134 2.922 0 1.942-1.13 2.935t-3.335.994h-2.056V100h-1.776ZM795.631 92.187q-.518-.405-1.054-.59-.537-.184-1.178-.184-1.512 0-2.312.95-.8.949-.8 2.742V100h-1.625v-9.844h1.626v1.925q.404-1.046 1.243-1.604t1.99-.558q.599 0 1.117.15.519.149.993.465ZM801.724 91.29q-1.23 0-1.863.958t-.633 2.839q0 1.872.633 2.834.633.963 1.863.963 1.24 0 1.872-.963.633-.962.633-2.834 0-1.88-.633-2.839-.633-.958-1.872-.958m0-1.371q2.048 0 3.133 1.327 1.086 1.327 1.086 3.84 0 2.523-1.081 3.846t-3.138 1.323q-2.048 0-3.129-1.323t-1.08-3.845q0-2.514 1.08-3.84 1.081-1.328 3.129-1.328M816.493 86.324v1.345h-1.837q-.87 0-1.209.356-.338.356-.338 1.261v.87h3.384v1.257h-3.384V100h-1.617v-8.587h-2.628v-1.257h2.628v-.685q0-1.617.742-2.382.743-.765 2.316-.765ZM820.767 90.191h4.14v8.552h3.208V100h-8.033v-1.257h3.208v-7.295h-2.523Zm2.523-3.823h1.617v2.04h-1.617ZM835.14 96.44q0 1.09.4 1.644t1.181.554h1.89V100h-2.048q-1.45 0-2.245-.927t-.796-2.633v-8.903h-2.593v-1.265h4.21ZM849.504 94.27v.79h-7.005v.053q-.07 2.013.769 2.892.84.879 2.369.879.773 0 1.617-.246.843-.246 1.801-.747v1.608q-.922.378-1.78.567-.856.189-1.656.189-2.294 0-3.586-1.376t-1.292-3.792q0-2.356 1.266-3.762 1.265-1.406 3.375-1.406 1.88 0 2.966 1.274 1.085 1.275 1.156 3.077m-1.617-.475q-.106-1.02-.743-1.762-.637-.743-1.833-.743-1.169 0-1.924.774-.756.773-.827 1.74ZM855.299 86.878h1.784v5.757l-.185 2.698h-1.415l-.184-2.698Zm-.264 10.89h2.312V100h-2.312ZM869.636 86.403v5.38h-1.97v-5.38Zm-4.685 0v5.38h-1.969v-5.38ZM875.229 85.463h1.406q1.327 2.074 1.977 4.06.65 1.987.65 3.947 0 1.977-.65 3.964t-1.977 4.06h-1.406q1.169-2.039 1.744-4.034.576-1.995.576-3.99 0-2.004-.576-4-.575-1.994-1.744-4.007M361.343 120.324v1.345h-1.837q-.87 0-1.209.356-.338.356-.338 1.261v.87h3.384v1.257h-3.384V134h-1.617v-8.587h-2.628v-1.257h2.628v-.685q0-1.617.742-2.382.743-.765 2.316-.765ZM368.781 125.158q.3-.633.76-.936.462-.303 1.112-.303 1.187 0 1.675.918.488.919.488 3.459V134h-1.477v-5.634q0-2.083-.233-2.588t-.848-.505q-.703 0-.962.54-.26.54-.26 2.553V134h-1.476v-5.634q0-2.11-.25-2.601-.251-.492-.902-.492-.641 0-.892.54-.25.54-.25 2.553V134h-1.468v-9.844h1.468V125q.29-.527.725-.804t.989-.277q.668 0 1.111.308.444.307.69.931M379.066 121.361v2.795h3.674v1.257h-3.674v5.344q0 1.09.414 1.52.413.431 1.44.431h1.82V134h-1.977q-1.82 0-2.567-.73-.747-.729-.747-2.513v-5.344h-2.628v-1.257h2.628v-2.795ZM387.929 130.45h3.094V134h-3.094ZM398.857 122.337v4.93h2.056q1.23 0 1.92-.65t.69-1.82-.685-1.814-1.925-.646Zm-1.776-1.459h3.832q2.198 0 3.331.998 1.134.997 1.134 2.922 0 1.942-1.13 2.935t-3.335.994h-2.056V134h-1.776ZM416.331 126.187q-.518-.405-1.054-.59-.537-.184-1.178-.184-1.512 0-2.312.95-.8.949-.8 2.742V134h-1.625v-9.844h1.626v1.925q.404-1.046 1.243-1.604t1.99-.558q.599 0 1.117.15.519.149.993.465ZM419.797 124.191h4.14v8.552h3.208V134h-8.033v-1.257h3.208v-7.295h-2.523Zm2.523-3.823h1.617v2.04h-1.617ZM437.097 127.9v6.1h-1.626v-6.1q0-1.327-.466-1.95-.465-.625-1.459-.625-1.133 0-1.744.804-.611.805-.611 2.308V134h-1.617v-9.844h1.617v1.477q.43-.844 1.169-1.279.738-.435 1.749-.435 1.503 0 2.246.989.742.989.742 2.992M444.096 121.361v2.795h3.674v1.257h-3.674v5.344q0 1.09.414 1.52.413.431 1.44.431h1.82V134h-1.977q-1.82 0-2.567-.73-.747-.729-.747-2.513v-5.344h-2.628v-1.257h2.628v-2.795ZM455.85 130.44q0 1.09.4 1.644t1.181.554h1.89V134h-2.048q-1.45 0-2.245-.927t-.796-2.633v-8.903h-2.593v-1.265h4.21ZM469.607 127.9v6.1h-1.626v-6.1q0-1.327-.466-1.95-.465-.625-1.459-.625-1.133 0-1.744.804-.611.805-.611 2.308V134h-1.617v-9.844h1.617v1.477q.43-.844 1.169-1.279.738-.435 1.749-.435 1.503 0 2.246.989.742.989.742 2.992M478.725 119.463q-1.17 2.004-1.745 3.995-.576 1.99-.576 4.012 0 2.012.576 4.008t1.745 4.016h-1.407q-1.327-2.092-1.977-4.074t-.65-3.95q0-1.96.65-3.946t1.977-4.061ZM490.346 120.403v5.38h-1.97v-5.38Zm-4.685 0v5.38h-1.969v-5.38ZM493.196 120.922h2.373l2.268 6.662 2.285-6.662h2.382V134h-1.644v-11.558l-2.337 6.891h-1.345l-2.347-6.89V134h-1.635ZM505.487 120.878h7.286v1.494h-2.751v10.134h2.75V134h-7.285v-1.494h2.75v-10.134h-2.75ZM523.444 121.326v1.802q-.808-.519-1.621-.782-.813-.264-1.64-.264-1.256 0-1.986.585-.73.584-.73 1.577 0 .87.48 1.327.479.457 1.789.765l.931.21q1.846.432 2.69 1.354t.843 2.514q0 1.872-1.16 2.857-1.16.984-3.375.984-.923 0-1.854-.198-.932-.198-1.872-.593v-1.89q1.01.642 1.911.94.901.3 1.815.3 1.345 0 2.092-.603.747-.602.747-1.683 0-.984-.514-1.503t-1.789-.8l-.949-.22q-1.828-.412-2.654-1.247t-.826-2.241q0-1.758 1.182-2.817t3.142-1.06q.756 0 1.59.172.836.171 1.758.514M525.706 120.922h2.373l2.268 6.662 2.285-6.662h2.382V134h-1.644v-11.558l-2.337 6.891h-1.345l-2.347-6.89V134h-1.635ZM556.183 129.21q0-1.134-.563-1.815t-1.502-.681-1.508.681-.567 1.815q0 1.143.567 1.824.567.68 1.508.68.94 0 1.502-.68.563-.681.563-1.824m1.23 3.603h-1.265v-.975q-.325.554-.901.852-.576.3-1.296.3-1.415 0-2.343-1.064t-.927-2.716.927-2.716 2.343-1.063q.703 0 1.292.307.588.308.905.844v-.554q0-1.37-.774-2.206-.773-.835-2.047-.835-2.163 0-3.441 1.683-1.28 1.684-1.28 4.558 0 2.891 1.451 4.605 1.45 1.714 3.973 1.723.474.07 1.336.07.86 0 1.538-.035v1.265q-.572.044-1.472.049-.901.004-1.402-.075-3.05-.026-4.891-2.074t-1.842-5.528q0-3.428 1.653-5.458 1.652-2.03 4.43-2.03 1.836 0 2.935 1.168 1.098 1.17 1.098 3.138ZM578.17 133.534q-.676.36-1.388.54t-1.512.18q-2.522 0-3.915-1.783-1.393-1.784-1.393-5.019 0-3.217 1.402-5.014t3.906-1.797q.8 0 1.512.18t1.389.54v1.82q-.65-.536-1.398-.818-.747-.28-1.503-.28-1.731 0-2.593 1.335-.86 1.336-.86 4.034 0 2.69.86 4.026.862 1.335 2.593 1.335.774 0 1.516-.28.743-.282 1.385-.818ZM585.75 129.052h-.536q-1.415 0-2.132.496-.716.497-.716 1.481 0 .888.536 1.38t1.486.492q1.336 0 2.1-.927.765-.927.774-2.562v-.36Zm3.138-.668V134h-1.626v-1.459q-.519.879-1.306 1.296-.786.418-1.911.418-1.503 0-2.4-.848-.896-.848-.896-2.272 0-1.644 1.103-2.496t3.239-.853h2.17v-.255q-.008-1.177-.597-1.71-.589-.53-1.88-.53-.827 0-1.67.236-.845.238-1.644.695v-1.617q.896-.343 1.718-.515t1.595-.171q1.222 0 2.087.36t1.402 1.081q.334.44.475 1.086t.14 1.938M600.561 126.187q-.518-.405-1.054-.59-.537-.184-1.178-.184-1.512 0-2.312.95-.8.949-.8 2.742V134h-1.625v-9.844h1.626v1.925q.404-1.046 1.243-1.604t1.99-.558q.599 0 1.117.15.519.149.993.465ZM610.487 127.9v6.1h-1.626v-6.1q0-1.327-.466-1.95-.465-.625-1.459-.625-1.133 0-1.744.804-.611.805-.611 2.308V134h-1.617v-9.844h1.617v1.477q.43-.844 1.169-1.279.738-.435 1.749-.435 1.503 0 2.246.989.742.989.742 2.992M621.934 128.27v.79h-7.005v.053q-.07 2.013.769 2.892.84.879 2.369.879.773 0 1.617-.246.843-.246 1.801-.747v1.608q-.922.378-1.78.567-.856.189-1.656.189-2.294 0-3.586-1.376t-1.292-3.792q0-2.356 1.266-3.762 1.265-1.406 3.375-1.406 1.88 0 2.966 1.274 1.085 1.275 1.156 3.077m-1.617-.475q-.106-1.02-.743-1.762-.637-.743-1.833-.743-1.169 0-1.924.774-.756.773-.827 1.74ZM630.461 129q0-1.82-.593-2.765-.594-.945-1.727-.945-1.187 0-1.81.945-.625.945-.625 2.764 0 1.82.629 2.773.628.954 1.823.954 1.116 0 1.71-.958t.593-2.769m1.617 4.367q0 2.215-1.046 3.358-1.046 1.142-3.076 1.142-.668 0-1.397-.123-.73-.123-1.46-.36v-1.6q.862.404 1.565.598t1.292.193q1.31 0 1.907-.712.598-.712.598-2.259v-1.168q-.387.826-1.055 1.23t-1.626.404q-1.722 0-2.75-1.38T624 129q0-2.321 1.028-3.701t2.751-1.38q.95 0 1.609.378t1.072 1.169v-1.275h1.617ZM636.537 124.191h4.14v8.552h3.208V134h-8.033v-1.257h3.208v-7.295h-2.523Zm2.523-3.823h1.617v2.04h-1.617ZM654.444 128.27v.79h-7.005v.053q-.07 2.013.769 2.892.84.879 2.369.879.773 0 1.617-.246.843-.246 1.801-.747v1.608q-.922.378-1.78.567-.856.189-1.656.189-2.294 0-3.586-1.376t-1.292-3.792q0-2.356 1.266-3.762 1.265-1.406 3.375-1.406 1.88 0 2.966 1.274 1.085 1.275 1.156 3.077m-1.617-.475q-.106-1.02-.743-1.762-.637-.743-1.833-.743-1.169 0-1.924.774-.756.773-.827 1.74ZM666.586 120.922h2.373l2.268 6.662 2.285-6.662h2.382V134h-1.644v-11.558l-2.337 6.891h-1.345l-2.347-6.89V134h-1.635ZM686.954 128.27v.79h-7.005v.053q-.07 2.013.769 2.892.84.879 2.369.879.773 0 1.617-.246.843-.246 1.801-.747v1.608q-.922.378-1.78.567-.856.189-1.656.189-2.294 0-3.586-1.376t-1.292-3.792q0-2.356 1.266-3.762 1.265-1.406 3.375-1.406 1.88 0 2.966 1.274 1.085 1.275 1.156 3.077m-1.617-.475q-.106-1.02-.743-1.762-.637-.743-1.833-.743-1.169 0-1.924.774-.756.773-.827 1.74ZM694.26 130.44q0 1.09.4 1.644t1.181.554h1.89V134h-2.048q-1.45 0-2.245-.927t-.796-2.633v-8.903h-2.593v-1.265h4.21ZM705.1 130.44q0 1.09.4 1.644t1.181.554h1.89V134h-2.048q-1.45 0-2.245-.927t-.796-2.633v-8.903h-2.593v-1.265h4.21ZM715.034 125.29q-1.23 0-1.863.958t-.633 2.839q0 1.872.633 2.834.633.963 1.863.963 1.24 0 1.872-.963.633-.962.633-2.834 0-1.88-.633-2.839-.633-.958-1.872-.958m0-1.371q2.048 0 3.133 1.327 1.086 1.327 1.086 3.84 0 2.523-1.081 3.846t-3.138 1.323q-2.048 0-3.129-1.323t-1.08-3.845q0-2.514 1.08-3.84 1.081-1.328 3.129-1.328M729.697 127.9v6.1h-1.626v-6.1q0-1.327-.466-1.95-.465-.625-1.459-.625-1.133 0-1.744.804-.611.805-.611 2.308V134h-1.617v-9.844h1.617v1.477q.43-.844 1.169-1.279.738-.435 1.749-.435 1.503 0 2.246.989.742.989.742 2.992M743.422 128.964v-8.086h1.784v8.894q0 .958.053 1.367t.184.629q.282.518.813.782.532.263 1.288.263.765 0 1.292-.263.527-.264.817-.782.132-.22.185-.624.053-.405.053-1.354v-8.912h1.775v8.086q0 2.013-.25 2.86-.25.849-.866 1.403-.58.518-1.327.773t-1.679.255q-.923 0-1.67-.255t-1.336-.773q-.606-.545-.861-1.411t-.255-2.852M762.207 127.9v6.1h-1.626v-6.1q0-1.327-.466-1.95-.465-.625-1.459-.625-1.133 0-1.744.804-.611.805-.611 2.308V134h-1.617v-9.844h1.617v1.477q.43-.844 1.169-1.279.738-.435 1.749-.435 1.503 0 2.246.989.742.989.742 2.992M766.577 124.191h4.14v8.552h3.208V134h-8.033v-1.257h3.208v-7.295h-2.523Zm2.523-3.823h1.617v2.04H769.1ZM775.519 124.156h1.679l2.856 8.262 2.865-8.262h1.679L781.1 134h-2.083ZM795.324 128.27v.79h-7.005v.053q-.07 2.013.769 2.892.84.879 2.369.879.773 0 1.617-.246.843-.246 1.801-.747v1.608q-.922.378-1.78.567-.856.189-1.656.189-2.294 0-3.586-1.376t-1.292-3.792q0-2.356 1.266-3.762 1.265-1.406 3.375-1.406 1.88 0 2.966 1.274 1.085 1.275 1.156 3.077m-1.617-.475q-.106-1.02-.743-1.762-.637-.743-1.833-.743-1.169 0-1.924.774-.756.773-.827 1.74ZM806.461 126.187q-.518-.405-1.054-.59-.537-.184-1.178-.184-1.512 0-2.312.95-.8.949-.8 2.742V134h-1.625v-9.844h1.626v1.925q.404-1.046 1.243-1.604t1.99-.558q.599 0 1.117.15.519.149.993.465ZM815.702 124.5v1.581q-.695-.404-1.398-.606t-1.432-.202q-1.099 0-1.64.355-.54.356-.54 1.086 0 .66.404.984.405.325 2.013.633l.65.123q1.204.229 1.824.914.62.686.62 1.784 0 1.46-1.037 2.281-1.038.822-2.883.822-.73 0-1.53-.154t-1.73-.461v-1.67q.904.466 1.73.698.827.233 1.565.233 1.072 0 1.661-.435t.589-1.217q0-1.125-2.153-1.556l-.07-.017-.607-.123q-1.398-.273-2.04-.919-.64-.646-.64-1.762 0-1.415.957-2.184.958-.769 2.734-.769.79 0 1.52.145t1.433.435M820.767 124.191h4.14v8.552h3.208V134h-8.033v-1.257h3.208v-7.295h-2.523Zm2.523-3.823h1.617v2.04h-1.617ZM834.216 121.361v2.795h3.674v1.257h-3.674v5.344q0 1.09.414 1.52.413.431 1.44.431h1.82V134h-1.977q-1.82 0-2.567-.73-.747-.729-.747-2.513v-5.344h-2.628v-1.257h2.628v-2.795ZM847.201 130.836q-.404 1.028-1.028 2.707-.87 2.32-1.17 2.83-.404.686-1.01 1.028-.606.343-1.415.343h-1.3v-1.353h.957q.712 0 1.116-.413.405-.414 1.029-2.136l-3.806-9.686h1.714l2.918 7.7 2.874-7.7h1.714ZM858.806 120.403v5.38h-1.97v-5.38Zm-4.685 0v5.38h-1.969v-5.38ZM864.389 119.463h1.406q1.327 2.074 1.977 4.06.65 1.987.65 3.947 0 1.977-.65 3.964t-1.977 4.06h-1.406q1.169-2.039 1.744-4.034.576-1.995.576-3.99 0-2.004-.576-4-.575-1.994-1.744-4.007M361.343 154.324v1.345h-1.837q-.87 0-1.209.356-.338.356-.338 1.261v.87h3.384v1.257h-3.384V168h-1.617v-8.587h-2.628v-1.257h2.628v-.685q0-1.617.742-2.382.743-.765 2.316-.765ZM368.781 159.158q.3-.633.76-.936.462-.303 1.112-.303 1.187 0 1.675.918.488.919.488 3.459V168h-1.477v-5.634q0-2.083-.233-2.588t-.848-.505q-.703 0-.962.54-.26.54-.26 2.553V168h-1.476v-5.634q0-2.11-.25-2.601-.251-.492-.902-.492-.641 0-.892.54-.25.54-.25 2.553V168h-1.468v-9.844h1.468V159q.29-.527.725-.804t.989-.277q.668 0 1.111.308.444.307.69.931M379.066 155.361v2.795h3.674v1.257h-3.674v5.344q0 1.09.414 1.52.413.431 1.44.431h1.82V168h-1.977q-1.82 0-2.567-.73-.747-.729-.747-2.513v-5.344h-2.628v-1.257h2.628v-2.795ZM387.929 164.45h3.094V168h-3.094ZM398.857 156.337v4.93h2.056q1.23 0 1.92-.65t.69-1.82-.685-1.814-1.925-.646Zm-1.776-1.459h3.832q2.198 0 3.331.998 1.134.997 1.134 2.922 0 1.942-1.13 2.935t-3.335.994h-2.056V168h-1.776ZM416.331 160.187q-.518-.405-1.054-.59-.537-.184-1.178-.184-1.512 0-2.312.95-.8.949-.8 2.742V168h-1.625v-9.844h1.626v1.925q.404-1.046 1.243-1.604t1.99-.558q.599 0 1.117.15.519.149.993.465ZM419.797 158.191h4.14v8.552h3.208V168h-8.033v-1.257h3.208v-7.295h-2.523Zm2.523-3.823h1.617v2.04h-1.617ZM437.097 161.9v6.1h-1.626v-6.1q0-1.327-.466-1.95-.465-.625-1.459-.625-1.133 0-1.744.804-.611.805-.611 2.308V168h-1.617v-9.844h1.617v1.477q.43-.844 1.169-1.279.738-.435 1.749-.435 1.503 0 2.246.989.742.989.742 2.992M444.096 155.361v2.795h3.674v1.257h-3.674v5.344q0 1.09.414 1.52.413.431 1.44.431h1.82V168h-1.977q-1.82 0-2.567-.73-.747-.729-.747-2.513v-5.344h-2.628v-1.257h2.628v-2.795ZM455.85 164.44q0 1.09.4 1.644t1.181.554h1.89V168h-2.048q-1.45 0-2.245-.927t-.796-2.633v-8.903h-2.593v-1.265h4.21ZM469.607 161.9v6.1h-1.626v-6.1q0-1.327-.466-1.95-.465-.625-1.459-.625-1.133 0-1.744.804-.611.805-.611 2.308V168h-1.617v-9.844h1.617v1.477q.43-.844 1.169-1.279.738-.435 1.749-.435 1.503 0 2.246.989.742.989.742 2.992M478.725 153.463q-1.17 2.004-1.745 3.995-.576 1.99-.576 4.012 0 2.012.576 4.008t1.745 4.016h-1.407q-1.327-2.092-1.977-4.074t-.65-3.95q0-1.96.65-3.946t1.977-4.061ZM490.346 154.403v5.38h-1.97v-5.38Zm-4.685 0v5.38h-1.969v-5.38ZM502.31 167.534q-.676.36-1.388.54t-1.512.18q-2.522 0-3.915-1.783-1.393-1.784-1.393-5.019 0-3.217 1.402-5.014t3.906-1.797q.8 0 1.512.18t1.389.54v1.82q-.65-.536-1.398-.818-.747-.28-1.503-.28-1.731 0-2.593 1.335-.86 1.336-.86 4.034 0 2.69.86 4.026.862 1.335 2.593 1.335.774 0 1.516-.28.743-.282 1.385-.818ZM510.04 164.44q0 1.09.4 1.644t1.181.554h1.89V168h-2.048q-1.45 0-2.245-.927t-.796-2.633v-8.903h-2.593v-1.265h4.21ZM519.964 159.29q-1.23 0-1.863.958t-.633 2.839q0 1.872.633 2.834.633.963 1.863.963 1.24 0 1.872-.963.633-.962.633-2.834 0-1.88-.633-2.839-.633-.958-1.872-.958m0-1.371q2.048 0 3.133 1.327 1.086 1.327 1.086 3.84 0 2.523-1.081 3.846t-3.138 1.323q-2.048 0-3.129-1.323t-1.08-3.845q0-2.514 1.08-3.84 1.081-1.328 3.129-1.328M527.104 164.273v-6.1h1.617v6.1q0 1.328.47 1.952t1.455.624q1.142 0 1.749-.805.606-.804.606-2.307v-5.563h1.626V168h-1.626v-1.477q-.43.853-1.173 1.292t-1.736.44q-1.512 0-2.25-.989t-.738-2.993M543.771 159.413v-5.089h1.617V168h-1.617v-1.24q-.404.73-1.077 1.113-.672.382-1.55.382-1.785 0-2.809-1.384-1.024-1.385-1.024-3.82 0-2.399 1.028-3.765t2.804-1.367q.888 0 1.564.382.677.383 1.064 1.112m-4.755 3.674q0 1.88.598 2.839.597.958 1.766.958t1.78-.967.611-2.83q0-1.872-.61-2.835-.612-.962-1.78-.962-1.17 0-1.767.958-.598.958-.598 2.839M567.33 167.534q-.676.36-1.388.54t-1.512.18q-2.522 0-3.915-1.783-1.393-1.784-1.393-5.019 0-3.217 1.402-5.014t3.906-1.797q.8 0 1.512.18t1.389.54v1.82q-.65-.536-1.398-.818-.747-.28-1.503-.28-1.731 0-2.593 1.335-.86 1.336-.86 4.034 0 2.69.86 4.026.862 1.335 2.593 1.335.774 0 1.516-.28.743-.282 1.385-.818ZM574.154 159.29q-1.23 0-1.863.958t-.633 2.839q0 1.872.633 2.834.633.963 1.863.963 1.24 0 1.872-.963.633-.962.633-2.834 0-1.88-.633-2.839-.633-.958-1.872-.958m0-1.371q2.048 0 3.133 1.327 1.086 1.327 1.086 3.84 0 2.523-1.081 3.846t-3.138 1.323q-2.048 0-3.129-1.323t-1.08-3.845q0-2.514 1.08-3.84 1.081-1.328 3.129-1.328M585.521 159.158q.3-.633.76-.936.462-.303 1.112-.303 1.187 0 1.675.918.488.919.488 3.459V168h-1.477v-5.634q0-2.083-.233-2.588t-.848-.505q-.703 0-.962.54-.26.54-.26 2.553V168H584.3v-5.634q0-2.11-.25-2.601-.251-.492-.902-.492-.641 0-.892.54-.25.54-.25 2.553V168h-1.468v-9.844h1.468V159q.29-.527.725-.804t.989-.277q.668 0 1.111.308.444.307.69.931M593.706 166.76v4.984h-1.626v-13.588h1.626v1.257q.404-.73 1.077-1.112t1.55-.382q1.785 0 2.8 1.38t1.015 3.823q0 2.4-1.02 3.766-1.019 1.367-2.794 1.367-.897 0-1.57-.382-.671-.383-1.058-1.112m4.746-3.673q0-1.88-.593-2.839-.594-.958-1.763-.958-1.177 0-1.784.962-.606.963-.606 2.835 0 1.863.606 2.83.607.967 1.784.967 1.17 0 1.763-.958t.593-2.84M602.964 164.273v-6.1h1.617v6.1q0 1.328.47 1.952t1.455.624q1.142 0 1.749-.805.606-.804.606-2.307v-5.563h1.626V168h-1.626v-1.477q-.43.853-1.173 1.292t-1.736.44q-1.512 0-2.25-.989t-.738-2.993M617.486 155.361v2.795h3.674v1.257h-3.674v5.344q0 1.09.414 1.52.413.431 1.44.431h1.82V168h-1.977q-1.82 0-2.567-.73-.747-.729-.747-2.513v-5.344h-2.628v-1.257h2.628v-2.795ZM625.697 158.191h4.14v8.552h3.208V168h-8.033v-1.257h3.208v-7.295h-2.523Zm2.523-3.823h1.617v2.04h-1.617ZM642.997 161.9v6.1h-1.626v-6.1q0-1.327-.466-1.95-.465-.625-1.459-.625-1.133 0-1.744.804-.611.805-.611 2.308V168h-1.617v-9.844h1.617v1.477q.43-.844 1.169-1.279.738-.435 1.749-.435 1.503 0 2.246.989.742.989.742 2.992M652.141 163q0-1.82-.593-2.765-.594-.945-1.727-.945-1.187 0-1.81.945-.625.945-.625 2.764 0 1.82.629 2.773.628.954 1.823.954 1.116 0 1.71-.958t.593-2.769m1.617 4.367q0 2.215-1.046 3.358-1.046 1.142-3.076 1.142-.668 0-1.397-.123-.73-.123-1.46-.36v-1.6q.862.404 1.565.598t1.292.193q1.31 0 1.907-.712.598-.712.598-2.259v-1.168q-.387.826-1.055 1.23t-1.626.404q-1.722 0-2.75-1.38T645.68 163q0-2.321 1.028-3.701t2.751-1.38q.95 0 1.609.378t1.072 1.169v-1.275h1.617ZM671.078 160.028l3.656 4.913q.343-.43.51-1.09.167-.659.167-1.573 0-.28-.027-.896l-.009-.062h1.442v.343q0 1.415-.325 2.483-.326 1.068-.985 1.841l1.494 2.013h-1.872l-.685-.958q-.73.615-1.547.914t-1.75.299q-1.898 0-3.137-1.182t-1.239-2.975q0-1.204.606-2.233.607-1.028 1.829-1.907-.44-.633-.65-1.24-.212-.606-.212-1.23 0-1.318.875-2.083.874-.764 2.395-.764.571 0 1.147.105.575.106 1.19.308v1.608q-.518-.343-1.067-.505-.55-.163-1.156-.163-.853 0-1.345.4t-.492 1.077q0 .518.255 1.085t.932 1.472m-1.152.914q-.808.642-1.208 1.358t-.4 1.525q0 1.327.879 2.202.879.874 2.24.874.37 0 .774-.105.405-.106.791-.308.238-.132.391-.233.154-.1.295-.215ZM691.772 166.541q2.241 0 3.129-1.103t.888-3.986q0-2.909-.884-4.012-.883-1.103-3.133-1.103h-.844v10.204Zm.035-11.663q3.006 0 4.43 1.6t1.424 4.974q0 3.358-1.424 4.953t-4.43 1.595h-2.663v-13.122ZM701.557 158.191h4.14v8.552h3.208V168h-8.033v-1.257h3.208v-7.295h-2.523Zm2.523-3.823h1.617v2.04h-1.617ZM718.172 158.5v1.581q-.695-.404-1.398-.606t-1.432-.202q-1.099 0-1.64.355-.54.356-.54 1.086 0 .66.404.984.405.325 2.013.633l.65.123q1.204.229 1.824.914.62.686.62 1.784 0 1.46-1.037 2.281-1.038.822-2.883.822-.73 0-1.53-.154t-1.73-.461v-1.67q.904.466 1.73.698.827.233 1.565.233 1.072 0 1.661-.435t.589-1.217q0-1.125-2.153-1.556l-.07-.017-.607-.123q-1.398-.273-2.04-.919-.64-.646-.64-1.762 0-1.415.957-2.184.958-.769 2.734-.769.79 0 1.52.145t1.433.435M725.856 155.361v2.795h3.674v1.257h-3.674v5.344q0 1.09.414 1.52.413.431 1.44.431h1.82V168h-1.977q-1.82 0-2.567-.73-.747-.729-.747-2.513v-5.344h-2.628v-1.257h2.628v-2.795ZM741.441 160.187q-.518-.405-1.054-.59-.537-.184-1.178-.184-1.512 0-2.312.95-.8.949-.8 2.742V168h-1.625v-9.844h1.626v1.925q.404-1.046 1.243-1.604t1.99-.558q.599 0 1.117.15.519.149.993.465ZM744.907 158.191h4.14v8.552h3.208V168h-8.033v-1.257h3.208v-7.295h-2.523Zm2.523-3.823h1.617v2.04h-1.617ZM761.038 163.087q0-1.88-.597-2.839-.598-.958-1.767-.958-1.178 0-1.784.962-.607.963-.607 2.835 0 1.863.607 2.83.606.967 1.784.967 1.169 0 1.767-.958t.597-2.84m-4.755-3.674q.387-.72 1.068-1.107t1.578-.387q1.775 0 2.795 1.367t1.02 3.766q0 2.434-1.025 3.819-1.023 1.384-2.808 1.384-.879 0-1.55-.382-.673-.383-1.078-1.112V168h-1.617v-13.676h1.617ZM765.514 164.273v-6.1h1.617v6.1q0 1.328.47 1.952t1.455.624q1.142 0 1.749-.805.606-.804.606-2.307v-5.563h1.626V168h-1.626v-1.477q-.43.853-1.173 1.292t-1.736.44q-1.512 0-2.25-.989t-.738-2.993M780.036 155.361v2.795h3.674v1.257h-3.674v5.344q0 1.09.414 1.52.413.431 1.44.431h1.82V168h-1.977q-1.82 0-2.567-.73-.747-.729-.747-2.513v-5.344h-2.628v-1.257h2.628v-2.795ZM795.324 162.27v.79h-7.005v.053q-.07 2.013.769 2.892.84.879 2.369.879.773 0 1.617-.246.843-.246 1.801-.747v1.608q-.922.378-1.78.567-.856.189-1.656.189-2.294 0-3.586-1.376t-1.292-3.792q0-2.356 1.266-3.762 1.265-1.406 3.375-1.406 1.88 0 2.966 1.274 1.085 1.275 1.156 3.077m-1.617-.475q-.106-1.02-.743-1.762-.637-.743-1.833-.743-1.169 0-1.924.774-.756.773-.827 1.74ZM803.851 159.413v-5.089h1.617V168h-1.617v-1.24q-.404.73-1.077 1.113-.672.382-1.55.382-1.785 0-2.809-1.384-1.024-1.385-1.024-3.82 0-2.399 1.028-3.765t2.804-1.367q.888 0 1.564.382.677.383 1.064 1.112m-4.755 3.674q0 1.88.598 2.839.597.958 1.766.958t1.78-.967.611-2.83q0-1.872-.61-2.835-.612-.962-1.78-.962-1.17 0-1.767.958-.598.958-.598 2.839M826.884 155.326v1.802q-.808-.519-1.621-.782-.813-.264-1.64-.264-1.256 0-1.986.585-.73.584-.73 1.577 0 .87.48 1.327.479.457 1.789.765l.931.21q1.846.432 2.69 1.354t.843 2.514q0 1.872-1.16 2.857-1.16.984-3.375.984-.923 0-1.854-.198-.932-.198-1.872-.593v-1.89q1.01.642 1.911.94.901.3 1.815.3 1.345 0 2.092-.603.747-.602.747-1.683 0-.984-.514-1.503t-1.789-.8l-.949-.22q-1.828-.412-2.654-1.247t-.826-2.241q0-1.758 1.182-2.817t3.142-1.06q.756 0 1.59.172.836.171 1.758.514M836.361 164.836q-.404 1.028-1.028 2.707-.87 2.32-1.17 2.83-.404.686-1.01 1.028-.606.343-1.415.343h-1.3v-1.353h.957q.712 0 1.116-.413.405-.414 1.029-2.136l-3.806-9.686h1.714l2.918 7.7 2.874-7.7h1.714ZM848.212 158.5v1.581q-.695-.404-1.398-.606t-1.432-.202q-1.099 0-1.64.355-.54.356-.54 1.086 0 .66.404.984.405.325 2.013.633l.65.123q1.204.229 1.824.914.62.686.62 1.784 0 1.46-1.037 2.281-1.038.822-2.883.822-.73 0-1.53-.154t-1.73-.461v-1.67q.904.466 1.73.698.827.233 1.565.233 1.072 0 1.661-.435t.589-1.217q0-1.125-2.153-1.556l-.07-.017-.607-.123q-1.398-.273-2.04-.919-.64-.646-.64-1.762 0-1.415.957-2.184.958-.769 2.734-.769.79 0 1.52.145t1.433.435M855.896 155.361v2.795h3.674v1.257h-3.674v5.344q0 1.09.414 1.52.413.431 1.44.431h1.82V168h-1.977q-1.82 0-2.567-.73-.747-.729-.747-2.513v-5.344h-2.628v-1.257h2.628v-2.795ZM871.174 162.27v.79h-7.005v.053q-.07 2.013.769 2.892.84.879 2.369.879.773 0 1.617-.246.843-.246 1.801-.747v1.608q-.922.378-1.78.567-.856.189-1.656.189-2.294 0-3.586-1.376t-1.292-3.792q0-2.356 1.266-3.762 1.265-1.406 3.375-1.406 1.88 0 2.966 1.274 1.085 1.275 1.156 3.077m-1.617-.475q-.106-1.02-.743-1.762-.637-.743-1.833-.743-1.169 0-1.924.774-.756.773-.827 1.74ZM878.111 159.158q.3-.633.76-.936.462-.303 1.112-.303 1.187 0 1.675.918.488.919.488 3.459V168h-1.477v-5.634q0-2.083-.233-2.588t-.848-.505q-.703 0-.962.54-.26.54-.26 2.553V168h-1.476v-5.634q0-2.11-.25-2.601-.251-.492-.902-.492-.641 0-.892.54-.25.54-.25 2.553V168h-1.468v-9.844h1.468V159q.29-.527.725-.804t.989-.277q.668 0 1.111.308.444.307.69.931M891.562 158.5v1.581q-.695-.404-1.398-.606t-1.432-.202q-1.099 0-1.64.355-.54.356-.54 1.086 0 .66.404.984.405.325 2.013.633l.65.123q1.204.229 1.824.914.62.686.62 1.784 0 1.46-1.037 2.281-1.038.822-2.883.822-.73 0-1.53-.154t-1.73-.461v-1.67q.904.466 1.73.698.827.233 1.565.233 1.072 0 1.661-.435t.589-1.217q0-1.125-2.153-1.556l-.07-.017-.607-.123q-1.398-.273-2.04-.919-.64-.646-.64-1.762 0-1.415.957-2.184.958-.769 2.734-.769.79 0 1.52.145t1.433.435M902.156 154.403v5.38h-1.97v-5.38Zm-4.685 0v5.38h-1.969v-5.38ZM907.739 153.463h1.406q1.327 2.074 1.977 4.06.65 1.987.65 3.947 0 1.977-.65 3.964t-1.977 4.06h-1.406q1.169-2.039 1.744-4.034.576-1.995.576-3.99 0-2.004-.576-4-.575-1.994-1.744-4.007M361.343 188.324v1.345h-1.837q-.87 0-1.209.356-.338.356-.338 1.261v.87h3.384v1.257h-3.384V202h-1.617v-8.587h-2.628v-1.257h2.628v-.685q0-1.617.742-2.382.743-.765 2.316-.765ZM368.781 193.158q.3-.633.76-.936.462-.303 1.112-.303 1.187 0 1.675.918.488.919.488 3.459V202h-1.477v-5.634q0-2.083-.233-2.588t-.848-.505q-.703 0-.962.54-.26.54-.26 2.553V202h-1.476v-5.634q0-2.11-.25-2.601-.251-.492-.902-.492-.641 0-.892.54-.25.54-.25 2.553V202h-1.468v-9.844h1.468V193q.29-.527.725-.804t.989-.277q.668 0 1.111.308.444.307.69.931M379.066 189.361v2.795h3.674v1.257h-3.674v5.344q0 1.09.414 1.52.413.431 1.44.431h1.82V202h-1.977q-1.82 0-2.567-.73-.747-.729-.747-2.513v-5.344h-2.628v-1.257h2.628v-2.795ZM387.929 198.45h3.094V202h-3.094ZM398.857 190.337v4.93h2.056q1.23 0 1.92-.65t.69-1.82-.685-1.814-1.925-.646Zm-1.776-1.459h3.832q2.198 0 3.331.998 1.134.997 1.134 2.922 0 1.942-1.13 2.935t-3.335.994h-2.056V202h-1.776ZM416.331 194.187q-.518-.405-1.054-.59-.537-.184-1.178-.184-1.512 0-2.312.95-.8.949-.8 2.742V202h-1.625v-9.844h1.626v1.925q.404-1.046 1.243-1.604t1.99-.558q.599 0 1.117.15.519.149.993.465ZM419.797 192.191h4.14v8.552h3.208V202h-8.033v-1.257h3.208v-7.295h-2.523Zm2.523-3.823h1.617v2.04h-1.617ZM437.097 195.9v6.1h-1.626v-6.1q0-1.327-.466-1.95-.465-.625-1.459-.625-1.133 0-1.744.804-.611.805-.611 2.308V202h-1.617v-9.844h1.617v1.477q.43-.844 1.169-1.279.738-.435 1.749-.435 1.503 0 2.246.989.742.989.742 2.992M444.096 189.361v2.795h3.674v1.257h-3.674v5.344q0 1.09.414 1.52.413.431 1.44.431h1.82V202h-1.977q-1.82 0-2.567-.73-.747-.729-.747-2.513v-5.344h-2.628v-1.257h2.628v-2.795ZM455.85 198.44q0 1.09.4 1.644t1.181.554h1.89V202h-2.048q-1.45 0-2.245-.927t-.796-2.633v-8.903h-2.593v-1.265h4.21ZM469.607 195.9v6.1h-1.626v-6.1q0-1.327-.466-1.95-.465-.625-1.459-.625-1.133 0-1.744.804-.611.805-.611 2.308V202h-1.617v-9.844h1.617v1.477q.43-.844 1.169-1.279.738-.435 1.749-.435 1.503 0 2.246.989.742.989.742 2.992M478.725 187.463q-1.17 2.004-1.745 3.995-.576 1.99-.576 4.012 0 2.012.576 4.008t1.745 4.016h-1.407q-1.327-2.092-1.977-4.074t-.65-3.95q0-1.96.65-3.946t1.977-4.061ZM490.346 188.403v5.38h-1.97v-5.38Zm-4.685 0v5.38h-1.969v-5.38ZM498.294 190.442l-1.872 6.715h3.744Zm-1.072-1.564h2.153L503.392 202h-1.837l-.967-3.419h-4.597l-.949 3.419h-1.837ZM505.487 188.878h7.286v1.494h-2.751v10.134h2.75V202h-7.285v-1.494h2.75v-10.134h-2.75ZM527.157 188.878h7.286v1.494h-2.751v10.134h2.75V202h-7.285v-1.494h2.75v-10.134h-2.75ZM545.467 195.9v6.1h-1.626v-6.1q0-1.327-.466-1.95-.465-.625-1.459-.625-1.133 0-1.744.804-.611.805-.611 2.308V202h-1.617v-9.844h1.617v1.477q.43-.844 1.169-1.279.738-.435 1.749-.435 1.503 0 2.246.989.742.989.742 2.992M556.403 188.324v1.345h-1.837q-.87 0-1.209.356-.338.356-.338 1.261v.87h3.384v1.257h-3.384V202h-1.617v-8.587h-2.628v-1.257h2.628v-.685q0-1.617.742-2.382.743-.765 2.316-.765ZM568.051 194.187q-.518-.405-1.054-.59-.537-.184-1.178-.184-1.512 0-2.312.95-.8.949-.8 2.742V202h-1.625v-9.844h1.626v1.925q.404-1.046 1.243-1.604t1.99-.558q.599 0 1.117.15.519.149.993.465ZM574.91 197.052h-.536q-1.415 0-2.132.496-.716.497-.716 1.481 0 .888.536 1.38t1.486.492q1.336 0 2.1-.927.765-.927.774-2.562v-.36Zm3.138-.668V202h-1.626v-1.459q-.519.879-1.306 1.296-.786.418-1.911.418-1.503 0-2.4-.848-.896-.848-.896-2.272 0-1.644 1.103-2.496t3.239-.853h2.17v-.255q-.008-1.177-.597-1.71-.589-.53-1.88-.53-.827 0-1.67.236-.845.238-1.644.695v-1.617q.896-.343 1.718-.515t1.595-.171q1.222 0 2.087.36t1.402 1.081q.334.44.475 1.086t.14 1.938M588.132 192.5v1.581q-.695-.404-1.398-.606t-1.432-.202q-1.099 0-1.64.355-.54.356-.54 1.086 0 .66.404.984.405.325 2.013.633l.65.123q1.204.229 1.824.914.62.686.62 1.784 0 1.46-1.037 2.281-1.038.822-2.883.822-.73 0-1.53-.154t-1.73-.461v-1.67q.904.466 1.73.698.827.233 1.565.233 1.072 0 1.661-.435t.589-1.217q0-1.125-2.153-1.556l-.07-.017-.607-.123q-1.398-.273-2.04-.919-.64-.646-.64-1.762 0-1.415.957-2.184.958-.769 2.734-.769.79 0 1.52.145t1.433.435M595.806 189.361v2.795h3.674v1.257h-3.674v5.344q0 1.09.414 1.52.413.431 1.44.431h1.82V202h-1.977q-1.82 0-2.567-.73-.747-.729-.747-2.513v-5.344h-2.628v-1.257h2.628v-2.795ZM611.401 194.187q-.518-.405-1.054-.59-.537-.184-1.178-.184-1.512 0-2.312.95-.8.949-.8 2.742V202h-1.625v-9.844h1.626v1.925q.404-1.046 1.243-1.604t1.99-.558q.599 0 1.117.15.519.149.993.465ZM613.804 198.273v-6.1h1.617v6.1q0 1.328.47 1.952t1.455.624q1.142 0 1.749-.805.606-.804.606-2.307v-5.563h1.626V202h-1.626v-1.477q-.43.853-1.173 1.292t-1.736.44q-1.512 0-2.25-.989t-.738-2.993M632.245 201.499q-.65.378-1.34.567t-1.41.189q-2.286 0-3.574-1.371t-1.287-3.797 1.287-3.797 3.573-1.371q.712 0 1.389.185.677.184 1.362.57v1.697q-.641-.571-1.287-.826t-1.464-.255q-1.52 0-2.338.984-.817.985-.817 2.813 0 1.82.822 2.808.821.989 2.333.989.844 0 1.512-.26.668-.259 1.24-.804ZM639.156 189.361v2.795h3.674v1.257h-3.674v5.344q0 1.09.414 1.52.413.431 1.44.431h1.82V202h-1.977q-1.82 0-2.567-.73-.747-.729-.747-2.513v-5.344h-2.628v-1.257h2.628v-2.795ZM646.314 198.273v-6.1h1.617v6.1q0 1.328.47 1.952t1.455.624q1.142 0 1.749-.805.606-.804.606-2.307v-5.563h1.626V202h-1.626v-1.477q-.43.853-1.173 1.292t-1.736.44q-1.512 0-2.25-.989t-.738-2.993M665.581 194.187q-.518-.405-1.054-.59-.537-.184-1.178-.184-1.512 0-2.312.95-.8.949-.8 2.742V202h-1.625v-9.844h1.626v1.925q.404-1.046 1.243-1.604t1.99-.558q.599 0 1.117.15.519.149.993.465ZM676.114 196.27v.79h-7.005v.053q-.07 2.013.769 2.892.84.879 2.369.879.773 0 1.617-.246.843-.246 1.801-.747v1.608q-.922.378-1.78.567-.856.189-1.656.189-2.294 0-3.586-1.376t-1.292-3.792q0-2.356 1.266-3.762 1.265-1.406 3.375-1.406 1.88 0 2.966 1.274 1.085 1.275 1.156 3.077m-1.617-.475q-.106-1.02-.743-1.762-.637-.743-1.833-.743-1.169 0-1.924.774-.756.773-.827 1.74ZM685.662 192.5v1.581q-.695-.404-1.398-.606t-1.432-.202q-1.099 0-1.64.355-.54.356-.54 1.086 0 .66.404.984.405.325 2.013.633l.65.123q1.204.229 1.824.914.62.686.62 1.784 0 1.46-1.037 2.281-1.038.822-2.883.822-.73 0-1.53-.154t-1.73-.461v-1.67q.904.466 1.73.698.827.233 1.565.233 1.072 0 1.661-.435t.589-1.217q0-1.125-2.153-1.556l-.07-.017-.607-.123q-1.398-.273-2.04-.919-.64-.646-.64-1.762 0-1.415.957-2.184.958-.769 2.734-.769.79 0 1.52.145t1.433.435M696.246 188.403v5.38h-1.97v-5.38Zm-4.685 0v5.38h-1.969v-5.38ZM701.839 187.463h1.406q1.327 2.074 1.977 4.06.65 1.987.65 3.947 0 1.977-.65 3.964t-1.977 4.06h-1.406q1.169-2.039 1.744-4.034.576-1.995.576-3.99 0-2.004-.576-4-.575-1.994-1.744-4.007M358.495 225.295v.861h3.023v1.978h-3.023V236h-2.575v-7.866h-2.39v-1.978h2.39v-.685q0-1.776.738-2.461.738-.686 2.742-.686h2.118v1.978h-2.012q-.58 0-.787.21-.206.212-.224.783M368.904 227.14q.29-.623.739-.922.448-.299 1.098-.299 1.275 0 1.763.879.487.879.487 3.656V236h-2.11v-6.32q0-1.098-.166-1.467-.167-.37-.606-.37-.44 0-.616.379-.176.378-.176 1.459V236h-2.083v-6.32q0-1.08-.175-1.458-.176-.378-.616-.378-.439 0-.606.369-.167.37-.167 1.468V236h-2.11v-9.844h1.873v1.02q.22-.58.703-.919.483-.338 1.08-.338.599 0 1.09.356.493.356.598.866M379.734 223.361v2.795h3.367v1.978h-3.367v4.658q0 .66.321.945t1.068.285h1.978V236h-2.162q-2.215 0-2.998-.708-.782-.707-.782-2.623v-4.535h-2.513v-1.978h2.513v-2.795ZM388.456 232.774h2.936V236h-2.936ZM399.367 225.058v3.85h1.063q1.274 0 1.789-.431t.514-1.495-.514-1.494q-.515-.43-1.789-.43Zm-2.593-2.18h3.56q2.715 0 3.906.967t1.191 3.137-1.19 3.138q-1.192.967-3.908.967h-.966V236h-2.593ZM416.296 228.872q-.422-.387-.989-.58t-1.243-.193q-.818 0-1.428.285-.611.286-.945.83-.211.335-.295.81-.083.474-.083 1.44V236h-2.575v-9.844h2.575v1.53q.378-.844 1.16-1.306.782-.461 1.828-.461.527 0 1.033.127.505.128.962.374ZM418.962 226.156h5.098v7.866h3.2V236h-8.983v-1.978h3.208v-5.888h-2.523Zm2.523-4.79h2.575v3.006h-2.575ZM437.273 229.61V236h-2.558v-5.994q0-1.072-.303-1.534t-.989-.461q-.694 0-1.094.624t-.4 1.731V236h-2.557v-9.844h2.557v1.477q.273-.818.932-1.266.66-.448 1.59-.448 1.398 0 2.11.927t.712 2.764M444.764 223.361v2.795h3.367v1.978h-3.367v4.658q0 .66.321.945t1.068.285h1.978V236h-2.162q-2.215 0-2.998-.708-.782-.707-.782-2.623v-4.535h-2.513v-1.978h2.513v-2.795ZM452.931 231.896v-7.594h-2.61v-1.978h5.186v9.572q0 1.16.36 1.643t1.222.483h2.056V236h-2.777q-1.837 0-2.637-.95-.8-.948-.8-3.154M469.783 229.61V236h-2.558v-5.994q0-1.072-.303-1.534t-.989-.461q-.694 0-1.094.624t-.4 1.731V236h-2.557v-9.844h2.557v1.477q.273-.818.932-1.266.66-.448 1.59-.448 1.398 0 2.11.927t.712 2.764M479.331 222.324q-1.16 2.1-1.723 4.074-.562 1.973-.562 3.942 0 1.96.562 3.946t1.723 4.096h-2.004q-1.397-2.03-2.074-4.008-.677-1.977-.677-4.034 0-2.04.681-4.025.681-1.987 2.07-3.99ZM490.82 222.878v4.878h-2.25v-4.878Zm-4.5 0v4.878h-2.25v-4.878ZM502.565 235.517q-.896.369-1.828.553-.931.185-1.968.185-2.47 0-3.775-1.323t-1.305-3.81q0-2.408 1.256-3.806 1.257-1.397 3.428-1.397 2.189 0 3.397 1.296 1.209 1.297 1.209 3.652v1.046h-6.671q.008 1.16.685 1.732.677.57 2.022.57.887 0 1.749-.254.861-.255 1.801-.809Zm-2.18-5.537q-.017-1.02-.522-1.543-.506-.523-1.49-.523-.888 0-1.415.54-.527.541-.624 1.534ZM509.872 231.377q-1.441 0-2.012.37-.572.368-.572 1.265 0 .668.396 1.063.395.396 1.072.396 1.02 0 1.582-.77.563-.768.563-2.148v-.176Zm3.586-.993V236h-2.557v-1.099q-.466.65-1.196 1.002t-1.608.352q-1.679 0-2.615-.888-.936-.887-.936-2.478 0-1.723 1.116-2.545t3.454-.821h1.785v-.431q0-.624-.453-.945t-1.332-.32q-.922 0-1.788.232-.866.233-1.806.743v-2.197q.852-.352 1.731-.519t1.863-.167q2.4 0 3.371.976.971.975.971 3.489M524.666 228.872q-.422-.387-.989-.58t-1.243-.193q-.818 0-1.428.285-.611.286-.945.83-.211.335-.295.81-.083.474-.083 1.44V236h-2.575v-9.844h2.575v1.53q.378-.844 1.16-1.306.782-.461 1.828-.461.527 0 1.033.127.505.128.962.374ZM531.454 223.361v2.795h3.367v1.978h-3.367v4.658q0 .66.321.945t1.068.285h1.978V236h-2.162q-2.215 0-2.998-.708-.782-.707-.782-2.623v-4.535h-2.513v-1.978h2.513v-2.795ZM545.643 229.61V236h-2.558v-5.994q0-1.064-.303-1.52-.303-.458-.989-.458-.703 0-1.098.62t-.396 1.718V236h-2.557v-13.676h2.557v5.309q.273-.818.932-1.266.66-.448 1.59-.448 1.398 0 2.11.927t.712 2.764M555.77 226.464v2.25q-.712-.457-1.481-.69t-1.543-.233q-.86 0-1.3.25-.44.251-.44.743 0 .703 1.881 1.143l.097.026.738.176q1.406.334 2.061 1.077t.655 2.008q0 1.52-.998 2.28-.997.76-3.001.76-.888 0-1.82-.153-.931-.154-1.89-.461v-2.25q.853.483 1.737.738.883.255 1.71.255.904 0 1.37-.264t.466-.764q0-.493-.33-.756-.33-.264-1.568-.563l-.712-.158q-1.477-.334-2.154-1.046t-.676-1.907q0-1.424 1.028-2.215t2.892-.791q.835 0 1.665.136t1.613.409M559.306 232.564v-6.408h2.575v6.012q0 1.063.3 1.52.298.458.992.458.695 0 1.086-.616.391-.615.391-1.722v-5.652h2.575V236h-2.575v-1.459q-.273.817-.927 1.266-.655.448-1.578.448-1.406 0-2.122-.932-.717-.931-.717-2.76M572.625 234.611v5.133h-2.567v-13.588h2.567v1.477q.404-.853 1.063-1.283.66-.431 1.547-.431 1.688 0 2.62 1.354.93 1.353.93 3.814 0 2.496-.944 3.832-.945 1.336-2.694 1.336-.79 0-1.42-.409-.628-.408-1.102-1.235m3.586-3.542q0-1.423-.475-2.232t-1.31-.809-1.318.809q-.483.809-.483 2.232t.483 2.233q.484.808 1.318.808t1.31-.808.475-2.233M589.265 235.517q-.896.369-1.828.553-.931.185-1.968.185-2.47 0-3.775-1.323t-1.305-3.81q0-2.408 1.256-3.806 1.257-1.397 3.428-1.397 2.189 0 3.397 1.296 1.209 1.297 1.209 3.652v1.046h-6.671q.008 1.16.685 1.732.677.57 2.022.57.887 0 1.749-.254.861-.255 1.801-.809Zm-2.18-5.537q-.017-1.02-.522-1.543-.506-.523-1.49-.523-.888 0-1.415.54-.527.541-.624 1.534ZM600.526 228.872q-.422-.387-.989-.58t-1.243-.193q-.818 0-1.428.285-.611.286-.945.83-.211.335-.295.81-.083.474-.083 1.44V236h-2.575v-9.844h2.575v1.53q.378-.844 1.16-1.306.782-.461 1.828-.461.527 0 1.033.127.505.128.962.374ZM607.314 227.14q.29-.623.739-.922.448-.299 1.098-.299 1.275 0 1.763.879.487.879.487 3.656V236h-2.11v-6.32q0-1.098-.166-1.467-.167-.37-.606-.37-.44 0-.616.379-.176.378-.176 1.459V236h-2.082v-6.32q0-1.08-.176-1.458t-.616-.378q-.439 0-.606.369-.167.37-.167 1.468V236h-2.11v-9.844h1.873v1.02q.22-.58.703-.919.483-.338 1.08-.338.599 0 1.09.356.493.356.598.866M618.242 231.377q-1.441 0-2.012.37-.572.368-.572 1.265 0 .668.396 1.063.395.396 1.072.396 1.02 0 1.582-.77.563-.768.563-2.148v-.176Zm3.586-.993V236h-2.557v-1.099q-.466.65-1.196 1.002t-1.608.352q-1.679 0-2.615-.888-.936-.887-.936-2.478 0-1.723 1.116-2.545t3.454-.821h1.785v-.431q0-.624-.453-.945t-1.332-.32q-.922 0-1.788.232-.866.233-1.806.743v-2.197q.852-.352 1.731-.519t1.863-.167q2.4 0 3.371.976.971.975.971 3.489M632.333 229.61V236h-2.558v-5.994q0-1.072-.303-1.534t-.989-.461q-.694 0-1.094.624t-.4 1.731V236h-2.557v-9.844h2.557v1.477q.273-.818.932-1.266.66-.448 1.59-.448 1.398 0 2.11.927t.712 2.764M642.312 231.21q0-.993-.449-1.556-.448-.562-1.23-.562t-1.226.562-.444 1.556q0 1.002.444 1.564t1.226.563 1.23-.563.449-1.564m1.634 3.603h-1.722v-.72q-.334.466-.787.68-.452.216-1.085.216-1.442 0-2.325-1.037t-.883-2.742q0-1.696.879-2.729t2.329-1.033q.624 0 1.098.216.475.215.774.628v-.36q0-1.196-.655-1.846t-1.868-.65q-1.828 0-2.984 1.608t-1.155 4.184q0 2.698 1.336 4.293t3.56 1.595q.702 0 1.362-.206.659-.207 1.265-.62l.809 1.547q-.712.483-1.552.725-.839.242-1.797.242-3.076 0-4.904-2.048t-1.828-5.528q0-3.402 1.643-5.445t4.35-2.044q1.917 0 3.029 1.156t1.111 3.151ZM650.014 228.01q-.923 0-1.45.814-.528.813-.528 2.263t.528 2.263 1.45.813q.932 0 1.459-.813t.527-2.263-.527-2.263-1.459-.813m-4.553 3.077q0-2.382 1.235-3.775t3.318-1.393q2.092 0 3.327 1.393t1.235 3.775-1.235 3.775-3.327 1.393q-2.083 0-3.318-1.393t-1.235-3.775M656.836 232.564v-6.408h2.575v6.012q0 1.063.3 1.52.298.458.992.458.695 0 1.086-.616.391-.615.391-1.722v-5.652h2.575V236h-2.575v-1.459q-.273.817-.927 1.266-.655.448-1.578.448-1.406 0-2.122-.932-.717-.931-.717-2.76M672.334 223.361v2.795h3.367v1.978h-3.367v4.658q0 .66.321.945t1.068.285h1.978V236h-2.162q-2.215 0-2.998-.708-.782-.707-.782-2.623v-4.535h-2.513v-1.978h2.513v-2.795ZM680.511 231.896v-7.594h-2.61v-1.978h5.186v9.572q0 1.16.36 1.643t1.222.483h2.056V236h-2.777q-1.837 0-2.637-.95-.8-.948-.8-3.154M693.354 228.01q-.923 0-1.45.814-.528.813-.528 2.263t.528 2.263 1.45.813q.932 0 1.459-.813t.527-2.263-.527-2.263-1.459-.813m-4.553 3.077q0-2.382 1.235-3.775t3.318-1.393q2.092 0 3.327 1.393t1.235 3.775-1.235 3.775-3.327 1.393q-2.083 0-3.318-1.393t-1.235-3.775M704.194 228.01q-.923 0-1.45.814-.528.813-.528 2.263t.528 2.263 1.45.813q.932 0 1.459-.813t.527-2.263-.527-2.263-1.459-.813m-4.553 3.077q0-2.382 1.235-3.775t3.318-1.393q2.092 0 3.327 1.393t1.235 3.775-1.235 3.775-3.327 1.393q-2.083 0-3.318-1.393t-1.235-3.775M711.15 222.324h2.574v7.18l3.094-3.348h3.12l-3.726 3.674 3.937 6.17h-2.847l-2.699-4.605-.879.843V236h-2.575ZM724.406 232.774h2.936V236h-2.936ZM740.615 235.499q-.65.378-1.397.567t-1.609.189q-2.276 0-3.56-1.371-1.282-1.371-1.282-3.797 0-2.435 1.292-3.81t3.568-1.376q.79 0 1.525.185t1.463.571v2.356q-.562-.484-1.235-.743-.672-.26-1.393-.26-1.257 0-1.933.8t-.677 2.277.677 2.268q.676.79 1.933.79.747 0 1.398-.25t1.23-.76ZM747.544 228.01q-.923 0-1.45.814-.528.813-.528 2.263t.528 2.263 1.45.813q.932 0 1.459-.813t.527-2.263-.527-2.263-1.459-.813m-4.553 3.077q0-2.382 1.235-3.775t3.318-1.393q2.092 0 3.327 1.393t1.235 3.775-1.235 3.775-3.327 1.393q-2.083 0-3.318-1.393t-1.235-3.775M759.034 227.14q.29-.623.739-.922.448-.299 1.098-.299 1.275 0 1.763.879.487.879.487 3.656V236h-2.11v-6.32q0-1.098-.166-1.467-.167-.37-.606-.37-.44 0-.616.379-.176.378-.176 1.459V236h-2.082v-6.32q0-1.08-.176-1.458t-.616-.378q-.439 0-.606.369-.167.37-.167 1.468V236h-2.11v-9.844h1.873v1.02q.22-.58.703-.919.483-.338 1.08-.338.599 0 1.09.356.493.356.598.866M772.58 222.878v4.878h-2.25v-4.878Zm-4.5 0v4.878h-2.25v-4.878ZM777.356 222.324h2.004q1.388 2.004 2.07 3.99.68 1.987.68 4.026 0 2.057-.676 4.034-.677 1.978-2.074 4.008h-2.004q1.16-2.11 1.722-4.096t.563-3.946q0-1.969-.563-3.942t-1.722-4.074"/></g></svg>